PathFileType	4	(X/Y/Z)	35_2_76_p0_0-333_filt_butterworth.trc
DataRate	CameraRate	NumFrames	NumMarkers	Units	OrigDataRate	OrigDataStartFrame	OrigNumFrames
56.0	56.0	6	27	m	56.0	166	333
Frame#	Time	RHip			RKnee			RAnkle			RBigToe			RSmallToe			RHeel			LHip			LKnee			LAnkle			LBigToe			LSmallToe			LHeel			Neck			Head			Nose			RShoulder			RElbow			RWrist			RThumb			RIndex			RPinky			LShoulder			LElbow			LWrist			LThumb			LIndex			LPinky			
		X1	Y1	Z1	X2	Y2	Z2	X3	Y3	Z3	X4	Y4	Z4	X5	Y5	Z5	X6	Y6	Z6	X7	Y7	Z7	X8	Y8	Z8	X9	Y9	Z9	X10	Y10	Z10	X11	Y11	Z11	X12	Y12	Z12	X13	Y13	Z13	X14	Y14	Z14	X15	Y15	Z15	X16	Y16	Z16	X17	Y17	Z17	X18	Y18	Z18	X19	Y19	Z19	X20	Y20	Z20	X21	Y21	Z21	X22	Y22	Z22	X23	Y23	Z23	X24	Y24	Z24	X25	Y25	Z25	X26	Y26	Z26	X27	Y27	Z27	
166	2.9642857142857144	0.382575281771427	0.31405520190049396	0.9843174536037951	0.3631415687010776	-0.104052410567891	0.9655608310422401	0.35091211115883963	-0.5340866757988947	1.0079653049608976	0.35343704209587945	-0.5406247913937743	0.8088473805413205	0.41974491788317625	-0.5264504679236646	0.8072670279433201	0.3338759548962817	-0.5887717454389636	1.057707791138856	0.14436972306299578	0.3321238526987505	0.9877225478950704	0.15946823090286763	-0.10143987538907068	1.0016674622331572	0.17814517725620038	-0.5238435490625282	1.0001643802785407	0.1940803376386413	-0.5123477242038824	0.7893496497206038	0.1379352833708254	-0.5410371291802611	0.8485788787353408	0.19448330753445836	-0.601787592360239	1.0495707729993853	0.2639500145755872	0.9093533276696935	0.9522784182507003	0.27406005953936674	1.173473612025192	0.8941013149251558	0.2878900027118788	1.0441518438800506	0.7877554261146476	0.4278901094546944	0.8271574077018626	0.9539167751449456	0.5201633696398508	0.5513111298052753	0.9729642462837409	0.5239886475360076	0.3089824364842036	0.9271611775214472	0.4398652683864254	0.19737001910203905	0.9113088160968341	0.44791634254220114	0.16873775427293974	0.9146064562652747	0.498038987127683	0.1465942197502635	0.992776173235381	0.09314143282798057	0.8153145634479655	0.9647430290630101	0.0727863831186823	0.5382299131732264	1.0900342889801826	0.0556596011978063	0.289800746187387	1.0667224146245537	0.10682565919917966	0.15966934933596927	1.1201284803550025	0.0865377746742421	0.13482198433933806	1.1090719428975526	0.05693027102930906	0.17338300782290045	1.0925902845384319	
167	2.982142857142857	0.3822435956876261	0.3141782326956021	0.9842593982638019	0.3632701596831015	-0.10332946282957506	0.9660964799518915	0.350761655441487	-0.534264151059334	1.0082349245888287	0.3542384386014693	-0.5384829400856557	0.8057683509271709	0.4201972273363922	-0.5255181792798167	0.8060036011595761	0.33398604691201783	-0.5890022809386294	1.0580739199164741	0.14436336967864405	0.3327447626729388	0.9876078716909054	0.15947170407432465	-0.1014029642892616	1.0016297363495485	0.17815511866400666	-0.5238551461705424	1.0001676695271482	0.19268589905783826	-0.5135359601764399	0.7903970802397566	0.13722328167778344	-0.5430174806849287	0.8515843156477476	0.1945929525649788	-0.6020981399262383	1.0495904715395168	0.2666481356673063	0.9105729346968454	0.9501314377972336	0.2760610597429784	1.1731120722518524	0.8907208782219251	0.28867304960379325	1.043683803805629	0.7840582200127849	0.4283871827253849	0.8273788303332373	0.9545614745575246	0.5182184296010226	0.5495787495654224	0.9821570335796728	0.5209623069615066	0.30557871189736635	0.939579216917657	0.4374014739961535	0.20027745451813844	0.9123853328609304	0.4447078246136803	0.1720660489789258	0.9184353290800209	0.49703003467466267	0.1515107698194031	0.993872310850086	0.09485979150570653	0.8164608095400707	0.9620628295237837	0.07272927483838816	0.5392361452774046	1.0897787457116324	0.05577904490396511	0.292053268350919	1.0669191845473667	0.10687045984103852	0.15758508920345432	1.129812758516866	0.08876814387251583	0.13477380127839095	1.119132357754145	0.059172834298588925	0.17275042633599275	1.1006534973916189	
168	3.0	0.3818575957398399	0.31433487852141107	0.9841299573286979	0.363542266532491	-0.10258328620537083	0.9668371458630037	0.3506307043067148	-0.5343612726489492	1.0083645793626077	0.35482946561911843	-0.5369714617922903	0.8034722292066856	0.4204872243402785	-0.5258632784211859	0.8065652285157898	0.33404707462100736	-0.5891366183136623	1.0582836581892419	0.14436434971393683	0.33339639379393543	0.9874926020576822	0.1594774877304717	-0.10136617044446056	1.0015968733235707	0.17816490037304178	-0.5238796904369346	1.0001731993662881	0.19172694789455097	-0.5155737912244022	0.7925695487524567	0.13682870952600815	-0.5444557730426709	0.8534249063302336	0.1946699751702835	-0.6026301852200389	1.049616634013496	0.2689863919044312	0.9121457020480433	0.9479655851512645	0.2776059170893315	1.1726434667204775	0.8874172520246508	0.2892045773580513	1.0432097456201301	0.7819569683088222	0.4286649669599045	0.8271570546473265	0.9550093761931056	0.5158372439573393	0.5472253966125742	0.9929196065765074	0.5178129570862341	0.3012916014878244	0.9555563934300733	0.43570658550817565	0.20331150532843278	0.9142623765753706	0.4421652667276118	0.1758447052291801	0.9220368209156888	0.49548559633955	0.1563144068736771	0.9969291681708745	0.09662025753356424	0.8176540425089496	0.9598544982577708	0.07270763284676414	0.5390939668807657	1.090611411211833	0.055389890766614436	0.29595104396470845	1.065780464957681	0.10708329929649299	0.15713393983821683	1.1399572967291645	0.0910125134579713	0.13500243177418364	1.1309329504123866	0.0614686419602402	0.17399622692662703	1.1080481385470338	
169	3.017857142857143	0.38139581289336255	0.3145477962529293	0.9838417068998564	0.36392098349358953	-0.10190927302115593	0.9677743955488048	0.3505723408925133	-0.5343983438452441	1.0083783117930696	0.355155194593496	-0.5362195437825158	0.8021706250464592	0.4205810654800509	-0.5274468957196627	0.8089000297823987	0.3340551771376269	-0.5891671179405407	1.0583223176639227	0.1443833497263697	0.33406170992722145	0.9874026814702838	0.15948278369480626	-0.10132484045334272	1.0015636059047	0.17817410014678417	-0.5239075007817912	1.000177429315014	0.191504735014615	-0.5178738723212151	0.7950577455990043	0.13686117329861444	-0.5449043225383766	0.8534322592524909	0.19472959349054833	-0.6032778341351788	1.0496541934054786	0.27084377570707624	0.9136400240953675	0.9459854049835213	0.27857371676564824	1.1722980298551602	0.8850448015169873	0.28959981288157716	1.0430411624694305	0.7806905280581685	0.42893656629132243	0.826544310503934	0.9550160734138406	0.5130857692914389	0.5445402749206689	1.0038772553130928	0.5146989403583316	0.29638068731163497	0.9735156400081129	0.43497800044227397	0.20555172591450493	0.9180111445079129	0.4400842455928067	0.17967472563593995	0.9257375343439326	0.49256980107099707	0.16101163567226517	1.000807987236568	0.09830918573771248	0.8187984450775411	0.9580541030915614	0.07266196554189347	0.5382632177891586	1.0919579261373327	0.054430986555761784	0.30072980195351	1.0631532945522253	0.10726396059824338	0.1588268779865472	1.147071758412311	0.09250587836300249	0.135592585799287	1.1412787158214197	0.06305692907778872	0.17701156544692626	1.1127852171552288	
170	3.0357142857142856	0.3808743529352223	0.3148254957626992	0.9834126954548612	0.36435953075735694	-0.10132728545346242	0.9689082306432095	0.3506168896429863	-0.5344548598808984	1.0083591042934983	0.3552153565471495	-0.5361955044045	0.8018641690734732	0.42044726732536014	-0.5298445118852834	0.8123933146212003	0.33404066187341325	-0.5891491397284112	1.0582857089411952	0.14442364216196388	0.3347012536191577	0.9873562165955043	0.15948571615255597	-0.10127766683727468	1.001525609960786	0.1781825270890086	-0.523931677743453	1.0001787988282391	0.19207274953639047	-0.5197394314151773	0.7970321959642203	0.1372971308471856	-0.5442974533232774	0.8516118916384247	0.19478397275535447	-0.6038805315071377	1.0497021062778682	0.27216980395198276	0.9147115570123227	0.9444106362746163	0.27883907878271474	1.1721920279963463	0.8842277404370501	0.28959883879635795	1.0433632972309712	0.7802417776186985	0.42947565757373485	0.825770990000594	0.9542438150879131	0.5100914894298774	0.5418756049725377	1.0137482418176893	0.5116779844598972	0.291392209850778	0.9914260287095515	0.43492954821371776	0.2064377819019188	0.9239732760403971	0.4376864199368274	0.1828834422430799	0.9299566004638737	0.48779356321964296	0.16552283242018495	1.0034669609001636	0.09985944289679126	0.8199020373933663	0.9564311842017991	0.07257292808011201	0.537415273355365	1.0932383379269797	0.05301447909926908	0.30534893243604916	1.0593552871532865	0.10713935327478204	0.16232065578485905	1.1487712166554234	0.09291375200641883	0.13642507685779065	1.147296830635063	0.06338723202932739	0.18096330220541518	1.1135856199237943	
171	3.0535714285714284	0.3803571769323628	0.3151249231952875	0.9830086933078155	0.36480903102017015	-0.10076795199572214	0.9701977328033243	0.3507397043620892	-0.5345772560850535	1.0083313249551822	0.35511175736647516	-0.5365800748458167	0.8021610725005628	0.4200768592704981	-0.5322679149778595	0.8158812693887817	0.3340265108111074	-0.589115814694969	1.0582574230896418	0.14447974675750064	0.33525250302276	0.9873690020360641	0.1594862745996905	-0.10122919190911311	1.0014869853432495	0.1781896182271905	-0.5239516931829971	1.0001796235865819	0.19339047804861476	-0.5207793794343262	0.7982035141877942	0.138020565690135	-0.542994550391549	0.8486326247132804	0.194834789742347	-0.604340180421731	1.0497651921976578	0.273241723621222	0.9152294577381647	0.9434881470233777	0.27847148314596415	1.1723256353284142	0.8851855888083162	0.28884182501990274	1.0441488773717305	0.7812725994541454	0.4304711638443659	0.8250144157164724	0.9528018092465838	0.5071088236083894	0.5395757368211582	1.0216957479989157	0.5088544240809798	0.2871379657341477	1.0073614619717604	0.4350099596333679	0.20584765202455463	0.9315365082299438	0.434406540657233	0.18471569107037605	0.9346317981849537	0.4812207541645453	0.1689083484303769	1.0039713164291628	0.1010965938413252	0.8209818930917854	0.9549951277314914	0.07234860471658294	0.5369329525618135	1.0941829447191334	0.051335182235422355	0.3089381726927786	1.054975713023052	0.10657827876230333	0.16622991460930742	1.145319068192016	0.09233863606554825	0.13731989376995235	1.1473650277868555	0.06240463108207413	0.18460818648567606	1.1104395820800967	
